<svg width="50" height="50" viewBox="0 0 50 50" fill="none" xmlns="http://www.w3.org/2000/svg">
<g clip-path="url(#clip0_81_2122)">
<path d="M21.4986 7.11682C21.3567 6.97455 21.1881 6.86168 21.0025 6.78467C20.8169 6.70765 20.618 6.66801 20.417 6.66801C20.2161 6.66801 20.0171 6.70765 19.8315 6.78467C19.6459 6.86168 19.4773 6.97455 19.3354 7.11682L1.00357 25.4487C0.861801 25.5908 0.749432 25.7595 0.672892 25.9451C0.596351 26.1307 0.557139 26.3295 0.557498 26.5303V47.9174C0.557498 48.3226 0.718446 48.7112 1.00494 48.9977C1.29143 49.2842 1.67999 49.4451 2.08515 49.4451H15.8341C16.2392 49.4451 16.6278 49.2842 16.9143 48.9977C17.2008 48.7112 17.3617 48.3226 17.3617 47.9174V35.6962H23.4723V47.9174C23.4723 48.3226 23.6333 48.7112 23.9198 48.9977C24.2063 49.2842 24.5948 49.4451 25 49.4451H38.7489C39.1541 49.4451 39.5426 49.2842 39.8291 48.9977C40.1156 48.7112 40.2765 48.3226 40.2765 47.9174V26.5303C40.2769 26.3295 40.2377 26.1307 40.1612 25.9451C40.0846 25.7595 39.9722 25.5908 39.8305 25.4487L35.6936 21.3148V11.2537C35.6936 10.8485 35.5326 10.46 35.2461 10.1735C34.9597 9.887 34.5711 9.72605 34.1659 9.72605H31.1106C30.7055 9.72605 30.3169 9.887 30.0304 10.1735C29.7439 10.46 29.583 10.8485 29.583 11.2537V15.2042L21.4986 7.11682ZM3.61281 46.3898V27.1627L20.417 10.3585L37.2212 27.1627V46.3898H26.5276V34.1685C26.5276 33.7634 26.3667 33.3748 26.0802 33.0883C25.7937 32.8018 25.4051 32.6409 25 32.6409H15.8341C15.4289 32.6409 15.0403 32.8018 14.7538 33.0883C14.4673 33.3748 14.3064 33.7634 14.3064 34.1685V46.3898H3.61281Z" fill="#E6E6E6" fill-opacity="0.6"/>
<path d="M30.6639 7.11682C30.522 6.97455 30.3534 6.86168 30.1678 6.78467C29.9822 6.70765 29.7832 6.66801 29.5823 6.66801C29.3814 6.66801 29.1824 6.70765 28.9968 6.78467C28.8112 6.86168 28.6426 6.97455 28.5007 7.11682L10.1689 25.4487C10.0271 25.5908 9.91472 25.7595 9.83817 25.9451C9.76163 26.1307 9.72242 26.3295 9.72278 26.5303V47.9174C9.72278 48.3226 9.88373 48.7112 10.1702 48.9977C10.4567 49.2842 10.8453 49.4451 11.2504 49.4451H24.9993C25.4045 49.4451 25.7931 49.2842 26.0796 48.9977C26.366 48.7112 26.527 48.3226 26.527 47.9174V35.6962H32.6376V47.9174C32.6376 48.3226 32.7986 48.7112 33.0851 48.9977C33.3715 49.2842 33.7601 49.4451 34.1653 49.4451H47.9142C48.3193 49.4451 48.7079 49.2842 48.9944 48.9977C49.2809 48.7112 49.4418 48.3226 49.4418 47.9174V26.5303C49.4422 26.3295 49.403 26.1307 49.3264 25.9451C49.2499 25.7595 49.1375 25.5908 48.9958 25.4487L44.8589 21.3148V11.2537C44.8589 10.8485 44.6979 10.46 44.4114 10.1735C44.1249 9.887 43.7364 9.72605 43.3312 9.72605H40.2759C39.8707 9.72605 39.4822 9.887 39.1957 10.1735C38.9092 10.46 38.7482 10.8485 38.7482 11.2537V15.2042L30.6639 7.11682ZM12.7781 46.3898V27.1627L29.5823 10.3585L46.3865 27.1627V46.3898H35.6929V34.1685C35.6929 33.7634 35.532 33.3748 35.2455 33.0883C34.959 32.8018 34.5704 32.6409 34.1653 32.6409H24.9993C24.5942 32.6409 24.2056 32.8018 23.9191 33.0883C23.6326 33.3748 23.4717 33.7634 23.4717 34.1685V46.3898H12.7781Z" fill="#FF9505"/>
</g>
<defs>
<clipPath id="clip0_81_2122">
<rect width="48.885" height="48.885" fill="white" transform="translate(0.557495 0.55751)"/>
</clipPath>
</defs>
</svg>
